<svg width="152" height="148" viewBox="0 0 152 148" fill="none" xmlns="http://www.w3.org/2000/svg">
<mask id="path-1-inside-1_1_7" fill="white">
<path fill-rule="evenodd" clip-rule="evenodd" d="M117.928 115.929C122.383 99.2477 118.067 80.7119 104.981 67.6255C91.8943 54.539 73.3585 50.2231 56.6776 54.6777C52.223 71.3585 56.5389 89.8943 69.6254 102.981C82.7119 116.067 101.248 120.383 117.928 115.929Z"/>
</mask>
<path fill-rule="evenodd" clip-rule="evenodd" d="M117.928 115.929C122.383 99.2477 118.067 80.7119 104.981 67.6255C91.8943 54.539 73.3585 50.2231 56.6776 54.6777C52.223 71.3585 56.5389 89.8943 69.6254 102.981C82.7119 116.067 101.248 120.383 117.928 115.929Z" fill="#FAFAFA"/>
<path d="M117.928 115.929L119.477 121.725L122.83 120.83L123.725 117.477L117.928 115.929ZM56.6776 54.6777L55.1296 48.8808L51.7763 49.7763L50.8808 53.1296L56.6776 54.6777ZM100.738 71.8681C112.249 83.3788 116.056 99.6839 112.132 114.38L123.725 117.477C128.71 98.8115 123.886 78.045 109.223 63.3828L100.738 71.8681ZM58.2257 60.4746C72.9223 56.5498 89.2273 60.3573 100.738 71.8681L109.223 63.3828C94.5612 48.7206 73.7947 43.8963 55.1296 48.8808L58.2257 60.4746ZM73.868 98.7382C62.3573 87.2274 58.5498 70.9224 62.4745 56.2258L50.8808 53.1296C45.8963 71.7947 50.7206 92.5613 65.3828 107.223L73.868 98.7382ZM116.38 110.132C101.684 114.056 85.3788 110.249 73.868 98.7382L65.3828 107.223C80.0449 121.886 100.811 126.71 119.477 121.725L116.38 110.132Z" fill="#6A6A6A" mask="url(#path-1-inside-1_1_7)"/>
<mask id="path-3-inside-2_1_7" fill="white">
<path fill-rule="evenodd" clip-rule="evenodd" d="M33.6776 116.929C50.3585 121.383 68.8943 117.067 81.9807 103.981C95.0672 90.8943 99.3831 72.3585 94.9285 55.6777C78.2476 51.2231 59.7119 55.539 46.6254 68.6255C33.5389 81.7119 29.223 100.248 33.6776 116.929Z"/>
</mask>
<path fill-rule="evenodd" clip-rule="evenodd" d="M33.6776 116.929C50.3585 121.383 68.8943 117.067 81.9807 103.981C95.0672 90.8943 99.3831 72.3585 94.9285 55.6777C78.2476 51.2231 59.7119 55.539 46.6254 68.6255C33.5389 81.7119 29.223 100.248 33.6776 116.929Z" fill="#FAFAFA"/>
<path d="M33.6776 116.929L27.8808 118.477L28.7763 121.83L32.1296 122.725L33.6776 116.929ZM94.9285 55.6777L100.725 54.1296L99.8298 50.7763L96.4765 49.8808L94.9285 55.6777ZM77.7381 99.7382C66.2273 111.249 49.9223 115.056 35.2257 111.132L32.1296 122.725C50.7946 127.71 71.5612 122.886 86.2234 108.223L77.7381 99.7382ZM89.1316 57.2258C93.0564 71.9224 89.2488 88.2274 77.7381 99.7382L86.2234 108.223C100.886 93.5613 105.71 72.7947 100.725 54.1296L89.1316 57.2258ZM50.868 72.8681C62.3788 61.3573 78.6838 57.5498 93.3804 61.4746L96.4765 49.8808C77.8115 44.8963 57.0449 49.7206 42.3828 64.3828L50.868 72.8681ZM39.4745 115.38C35.5498 100.684 39.3573 84.3788 50.868 72.8681L42.3828 64.3828C27.7206 79.045 22.8963 99.8115 27.8808 118.477L39.4745 115.38Z" fill="#6A6A6A" mask="url(#path-3-inside-2_1_7)"/>
<mask id="path-5-inside-3_1_7" fill="white">
<path fill-rule="evenodd" clip-rule="evenodd" d="M97.9285 96.9285C102.383 80.2477 98.0672 61.7119 84.9808 48.6254C71.8943 35.539 53.3585 31.223 36.6777 35.6777C32.223 52.3585 36.539 70.8943 49.6254 83.9808C62.7119 97.0672 81.2477 101.383 97.9285 96.9285Z"/>
</mask>
<path fill-rule="evenodd" clip-rule="evenodd" d="M97.9285 96.9285C102.383 80.2477 98.0672 61.7119 84.9808 48.6254C71.8943 35.539 53.3585 31.223 36.6777 35.6777C32.223 52.3585 36.539 70.8943 49.6254 83.9808C62.7119 97.0672 81.2477 101.383 97.9285 96.9285Z" fill="#FAFAFA"/>
<path d="M97.9285 96.9285L99.4766 102.725L102.83 101.83L103.725 98.4766L97.9285 96.9285ZM36.6777 35.6777L35.1296 29.8808L31.7763 30.7763L30.8808 34.1296L36.6777 35.6777ZM80.7381 52.8681C92.2489 64.3788 96.0564 80.6839 92.1317 95.3805L103.725 98.4766C108.71 79.8115 103.886 59.045 89.2234 44.3828L80.7381 52.8681ZM38.2257 41.4745C52.9223 37.5498 69.2274 41.3573 80.7381 52.8681L89.2234 44.3828C74.5612 29.7206 53.7947 24.8963 35.1296 29.8808L38.2257 41.4745ZM53.8681 79.7381C42.3573 68.2274 38.5498 51.9223 42.4745 37.2257L30.8808 34.1296C25.8963 52.7947 30.7206 73.5612 45.3828 88.2234L53.8681 79.7381ZM96.3805 91.1317C81.6839 95.0564 65.3788 91.2489 53.8681 79.7381L45.3828 88.2234C60.045 102.886 80.8115 107.71 99.4766 102.725L96.3805 91.1317Z" fill="#6A6A6A" mask="url(#path-5-inside-3_1_7)"/>
<mask id="path-7-inside-4_1_7" fill="white">
<path fill-rule="evenodd" clip-rule="evenodd" d="M58.6777 96.9285C75.3585 101.383 93.8943 97.0672 106.981 83.9808C120.067 70.8943 124.383 52.3585 119.929 35.6777C103.248 31.223 84.7119 35.539 71.6254 48.6254C58.539 61.7119 54.223 80.2477 58.6777 96.9285Z"/>
</mask>
<path fill-rule="evenodd" clip-rule="evenodd" d="M58.6777 96.9285C75.3585 101.383 93.8943 97.0672 106.981 83.9808C120.067 70.8943 124.383 52.3585 119.929 35.6777C103.248 31.223 84.7119 35.539 71.6254 48.6254C58.539 61.7119 54.223 80.2477 58.6777 96.9285Z" fill="#FAFAFA"/>
<path d="M58.6777 96.9285L52.8808 98.4766L53.7763 101.83L57.1296 102.725L58.6777 96.9285ZM119.929 35.6777L125.725 34.1296L124.83 30.7763L121.477 29.8808L119.929 35.6777ZM102.738 79.7381C91.2274 91.2489 74.9223 95.0564 60.2257 91.1317L57.1296 102.725C75.7947 107.71 96.5612 102.886 111.223 88.2234L102.738 79.7381ZM114.132 37.2257C118.056 51.9223 114.249 68.2274 102.738 79.7381L111.223 88.2234C125.886 73.5612 130.71 52.7947 125.725 34.1296L114.132 37.2257ZM75.8681 52.8681C87.3788 41.3573 103.684 37.5498 118.38 41.4745L121.477 29.8808C102.811 24.8963 82.045 29.7206 67.3828 44.3828L75.8681 52.8681ZM64.4745 95.3805C60.5498 80.6839 64.3573 64.3788 75.8681 52.8681L67.3828 44.3828C52.7206 59.045 47.8963 79.8115 52.8808 98.4766L64.4745 95.3805Z" fill="#6A6A6A" mask="url(#path-7-inside-4_1_7)"/>
<mask id="path-9-inside-5_1_7" fill="white">
<path fill-rule="evenodd" clip-rule="evenodd" d="M77.0001 86.6218C91.9451 77.9766 102 61.818 102 43.3109C102 24.8038 91.9451 8.64525 77.0001 1.52588e-05C62.055 8.64525 52.0001 24.8038 52.0001 43.3109C52.0001 61.818 62.055 77.9766 77.0001 86.6218Z"/>
</mask>
<path fill-rule="evenodd" clip-rule="evenodd" d="M77.0001 86.6218C91.9451 77.9766 102 61.818 102 43.3109C102 24.8038 91.9451 8.64525 77.0001 1.52588e-05C62.055 8.64525 52.0001 24.8038 52.0001 43.3109C52.0001 61.818 62.055 77.9766 77.0001 86.6218Z" fill="#FAFAFA"/>
<path d="M77.0001 86.6218L73.495 92.681L77.0001 94.7086L80.5052 92.681L77.0001 86.6218ZM77.0001 1.52588e-05L80.5052 -6.05923L77.0001 -8.08681L73.495 -6.05923L77.0001 1.52588e-05ZM95.0001 43.3109C95.0001 59.2182 86.366 73.1171 73.495 80.5626L80.5052 92.681C97.5242 82.836 109 64.4178 109 43.3109H95.0001ZM73.495 6.05926C86.366 13.5047 95.0001 27.4036 95.0001 43.3109H109C109 22.204 97.5242 3.78578 80.5052 -6.05923L73.495 6.05926ZM59.0001 43.3109C59.0001 27.4036 67.6342 13.5047 80.5052 6.05926L73.495 -6.05923C56.4759 3.78578 45.0001 22.204 45.0001 43.3109H59.0001ZM80.5052 80.5626C67.6342 73.1171 59.0001 59.2182 59.0001 43.3109H45.0001C45.0001 64.4178 56.4759 82.836 73.495 92.681L80.5052 80.5626Z" fill="#6A6A6A" mask="url(#path-9-inside-5_1_7)"/>
<mask id="path-11-inside-6_1_7" fill="white">
<path fill-rule="evenodd" clip-rule="evenodd" d="M65 73.3109C73.6452 88.2559 89.8038 98.3109 108.311 98.3109C126.818 98.3109 142.977 88.2559 151.622 73.3109C142.977 58.3658 126.818 48.3109 108.311 48.3109C89.8038 48.3109 73.6452 58.3658 65 73.3109Z"/>
</mask>
<path fill-rule="evenodd" clip-rule="evenodd" d="M65 73.3109C73.6452 88.2559 89.8038 98.3109 108.311 98.3109C126.818 98.3109 142.977 88.2559 151.622 73.3109C142.977 58.3658 126.818 48.3109 108.311 48.3109C89.8038 48.3109 73.6452 58.3658 65 73.3109Z" fill="#FAFAFA"/>
<path d="M65 73.3109L58.9408 69.8058L56.9132 73.3109L58.9408 76.8159L65 73.3109ZM151.622 73.3109L157.681 76.8159L159.709 73.3109L157.681 69.8058L151.622 73.3109ZM108.311 91.3109C92.4036 91.3109 78.5047 82.6768 71.0592 69.8058L58.9408 76.8159C68.7858 93.835 87.204 105.311 108.311 105.311L108.311 91.3109ZM145.563 69.8058C138.117 82.6768 124.218 91.3109 108.311 91.3109L108.311 105.311C129.418 105.311 147.836 93.835 157.681 76.8159L145.563 69.8058ZM108.311 55.3109C124.218 55.3109 138.117 63.945 145.563 76.8159L157.681 69.8058C147.836 52.7867 129.418 41.3109 108.311 41.3109L108.311 55.3109ZM71.0592 76.8159C78.5047 63.945 92.4036 55.3109 108.311 55.3109L108.311 41.3109C87.204 41.3109 68.7858 52.7867 58.9408 69.8058L71.0592 76.8159Z" fill="#6A6A6A" mask="url(#path-11-inside-6_1_7)"/>
<mask id="path-13-inside-7_1_7" fill="white">
<path fill-rule="evenodd" clip-rule="evenodd" d="M-1.4915e-06 74.3109C8.64523 89.2559 24.8038 99.3109 43.3109 99.3109C61.8179 99.3109 77.9765 89.2559 86.6218 74.3109C77.9765 59.3658 61.8179 49.3109 43.3109 49.3109C24.8038 49.3109 8.64523 59.3658 -1.4915e-06 74.3109Z"/>
</mask>
<path fill-rule="evenodd" clip-rule="evenodd" d="M-1.4915e-06 74.3109C8.64523 89.2559 24.8038 99.3109 43.3109 99.3109C61.8179 99.3109 77.9765 89.2559 86.6218 74.3109C77.9765 59.3658 61.8179 49.3109 43.3109 49.3109C24.8038 49.3109 8.64523 59.3658 -1.4915e-06 74.3109Z" fill="#FAFAFA"/>
<path d="M-1.4915e-06 74.3109L-6.05924 70.8058L-8.08682 74.3109L-6.05924 77.8159L-1.4915e-06 74.3109ZM86.6218 74.3109L92.681 77.8159L94.7086 74.3109L92.681 70.8058L86.6218 74.3109ZM43.3109 92.3109C27.4036 92.3109 13.5047 83.6768 6.05924 70.8058L-6.05924 77.8159C3.78576 94.835 22.204 106.311 43.3109 106.311L43.3109 92.3109ZM80.5625 70.8058C73.1171 83.6768 59.2181 92.3109 43.3109 92.3109L43.3109 106.311C64.4177 106.311 82.836 94.835 92.681 77.8159L80.5625 70.8058ZM43.3109 56.3109C59.2181 56.3109 73.1171 64.945 80.5625 77.8159L92.681 70.8058C82.836 53.7867 64.4177 42.3109 43.3109 42.3109L43.3109 56.3109ZM6.05924 77.8159C13.5047 64.945 27.4036 56.3109 43.3109 56.3109L43.3109 42.3109C22.204 42.3109 3.78576 53.7867 -6.05924 70.8058L6.05924 77.8159Z" fill="#6A6A6A" mask="url(#path-13-inside-7_1_7)"/>
<mask id="path-15-inside-8_1_7" fill="white">
<path fill-rule="evenodd" clip-rule="evenodd" d="M76 147.622C90.945 138.977 101 122.818 101 104.311C101 85.8038 90.945 69.6453 76 61C61.055 69.6453 51 85.8038 51 104.311C51 122.818 61.055 138.977 76 147.622Z"/>
</mask>
<path fill-rule="evenodd" clip-rule="evenodd" d="M76 147.622C90.945 138.977 101 122.818 101 104.311C101 85.8038 90.945 69.6453 76 61C61.055 69.6453 51 85.8038 51 104.311C51 122.818 61.055 138.977 76 147.622Z" fill="#FAFAFA"/>
<path d="M76 147.622L72.4949 153.681L76 155.709L79.5051 153.681L76 147.622ZM76 61L79.5051 54.9408L76 52.9132L72.4949 54.9408L76 61ZM94 104.311C94 120.218 85.3659 134.117 72.4949 141.563L79.5051 153.681C96.5242 143.836 108 125.418 108 104.311H94ZM72.4949 67.0593C85.3659 74.5047 94 88.4036 94 104.311H108C108 83.204 96.5242 64.7858 79.5051 54.9408L72.4949 67.0593ZM58 104.311C58 88.4036 66.6341 74.5047 79.5051 67.0593L72.4949 54.9408C55.4758 64.7858 44 83.204 44 104.311H58ZM79.5051 141.563C66.6341 134.117 58 120.218 58 104.311H44C44 125.418 55.4758 143.836 72.4949 153.681L79.5051 141.563Z" fill="#6A6A6A" mask="url(#path-15-inside-8_1_7)"/>
</svg>
