<svg width="716" height="195" viewBox="0 0 716 195" fill="none" xmlns="http://www.w3.org/2000/svg">
<rect width="716" height="195" fill="#1E1E1E"/>
<mask id="path-1-inside-1_1_33" fill="white">
<path fill-rule="evenodd" clip-rule="evenodd" d="M151.928 134.929C156.383 118.248 152.067 99.7119 138.981 86.6255C125.894 73.539 107.358 69.2231 90.6776 73.6777C86.223 90.3585 90.5389 108.894 103.625 121.981C116.712 135.067 135.248 139.383 151.928 134.929Z"/>
</mask>
<path fill-rule="evenodd" clip-rule="evenodd" d="M151.928 134.929C156.383 118.248 152.067 99.7119 138.981 86.6255C125.894 73.539 107.358 69.2231 90.6776 73.6777C86.223 90.3585 90.5389 108.894 103.625 121.981C116.712 135.067 135.248 139.383 151.928 134.929Z" fill="#FAFAFA"/>
<path d="M151.928 134.929L153.477 140.725L156.83 139.83L157.725 136.477L151.928 134.929ZM90.6776 73.6777L89.1296 67.8808L85.7763 68.7763L84.8808 72.1296L90.6776 73.6777ZM134.738 90.8681C146.249 102.379 150.056 118.684 146.132 133.38L157.725 136.477C162.71 117.812 157.886 97.045 143.223 82.3828L134.738 90.8681ZM92.2257 79.4746C106.922 75.5498 123.227 79.3573 134.738 90.8681L143.223 82.3828C128.561 67.7206 107.795 62.8963 89.1296 67.8808L92.2257 79.4746ZM107.868 117.738C96.3573 106.227 92.5498 89.9224 96.4745 75.2258L84.8808 72.1296C79.8963 90.7947 84.7206 111.561 99.3828 126.223L107.868 117.738ZM150.38 129.132C135.684 133.056 119.379 129.249 107.868 117.738L99.3828 126.223C114.045 140.886 134.811 145.71 153.477 140.725L150.38 129.132Z" fill="#6A6A6A" mask="url(#path-1-inside-1_1_33)"/>
<mask id="path-3-inside-2_1_33" fill="white">
<path fill-rule="evenodd" clip-rule="evenodd" d="M67.6776 135.929C84.3585 140.383 102.894 136.067 115.981 122.981C129.067 109.894 133.383 91.3585 128.928 74.6777C112.248 70.2231 93.7119 74.539 80.6254 87.6255C67.5389 100.712 63.223 119.248 67.6776 135.929Z"/>
</mask>
<path fill-rule="evenodd" clip-rule="evenodd" d="M67.6776 135.929C84.3585 140.383 102.894 136.067 115.981 122.981C129.067 109.894 133.383 91.3585 128.928 74.6777C112.248 70.2231 93.7119 74.539 80.6254 87.6255C67.5389 100.712 63.223 119.248 67.6776 135.929Z" fill="#FAFAFA"/>
<path d="M67.6776 135.929L61.8808 137.477L62.7763 140.83L66.1296 141.725L67.6776 135.929ZM128.928 74.6777L134.725 73.1296L133.83 69.7763L130.477 68.8808L128.928 74.6777ZM111.738 118.738C100.227 130.249 83.9223 134.056 69.2257 130.132L66.1296 141.725C84.7946 146.71 105.561 141.886 120.223 127.223L111.738 118.738ZM123.132 76.2258C127.056 90.9224 123.249 107.227 111.738 118.738L120.223 127.223C134.886 112.561 139.71 91.7947 134.725 73.1296L123.132 76.2258ZM84.868 91.8681C96.3788 80.3573 112.684 76.5498 127.38 80.4746L130.477 68.8808C111.811 63.8963 91.0449 68.7206 76.3828 83.3828L84.868 91.8681ZM73.4745 134.38C69.5498 119.684 73.3573 103.379 84.868 91.8681L76.3828 83.3828C61.7206 98.045 56.8963 118.812 61.8808 137.477L73.4745 134.38Z" fill="#6A6A6A" mask="url(#path-3-inside-2_1_33)"/>
<mask id="path-5-inside-3_1_33" fill="white">
<path fill-rule="evenodd" clip-rule="evenodd" d="M131.929 115.929C136.383 99.2477 132.067 80.7119 118.981 67.6254C105.894 54.539 87.3585 50.223 70.6777 54.6777C66.223 71.3585 70.539 89.8943 83.6254 102.981C96.7119 116.067 115.248 120.383 131.929 115.929Z"/>
</mask>
<path fill-rule="evenodd" clip-rule="evenodd" d="M131.929 115.929C136.383 99.2477 132.067 80.7119 118.981 67.6254C105.894 54.539 87.3585 50.223 70.6777 54.6777C66.223 71.3585 70.539 89.8943 83.6254 102.981C96.7119 116.067 115.248 120.383 131.929 115.929Z" fill="#FAFAFA"/>
<path d="M131.929 115.929L133.477 121.725L136.83 120.83L137.725 117.477L131.929 115.929ZM70.6777 54.6777L69.1296 48.8808L65.7763 49.7763L64.8808 53.1296L70.6777 54.6777ZM114.738 71.8681C126.249 83.3788 130.056 99.6839 126.132 114.38L137.725 117.477C142.71 98.8115 137.886 78.045 123.223 63.3828L114.738 71.8681ZM72.2257 60.4745C86.9223 56.5498 103.227 60.3573 114.738 71.8681L123.223 63.3828C108.561 48.7206 87.7947 43.8963 69.1296 48.8808L72.2257 60.4745ZM87.8681 98.7381C76.3573 87.2274 72.5498 70.9223 76.4745 56.2257L64.8808 53.1296C59.8963 71.7947 64.7206 92.5612 79.3828 107.223L87.8681 98.7381ZM130.38 110.132C115.684 114.056 99.3788 110.249 87.8681 98.7381L79.3828 107.223C94.045 121.886 114.812 126.71 133.477 121.725L130.38 110.132Z" fill="#6A6A6A" mask="url(#path-5-inside-3_1_33)"/>
<mask id="path-7-inside-4_1_33" fill="white">
<path fill-rule="evenodd" clip-rule="evenodd" d="M92.6777 115.929C109.358 120.383 127.894 116.067 140.981 102.981C154.067 89.8943 158.383 71.3585 153.929 54.6777C137.248 50.223 118.712 54.539 105.625 67.6254C92.539 80.7119 88.223 99.2477 92.6777 115.929Z"/>
</mask>
<path fill-rule="evenodd" clip-rule="evenodd" d="M92.6777 115.929C109.358 120.383 127.894 116.067 140.981 102.981C154.067 89.8943 158.383 71.3585 153.929 54.6777C137.248 50.223 118.712 54.539 105.625 67.6254C92.539 80.7119 88.223 99.2477 92.6777 115.929Z" fill="#FAFAFA"/>
<path d="M92.6777 115.929L86.8808 117.477L87.7763 120.83L91.1296 121.725L92.6777 115.929ZM153.929 54.6777L159.725 53.1296L158.83 49.7763L155.477 48.8808L153.929 54.6777ZM136.738 98.7381C125.227 110.249 108.922 114.056 94.2257 110.132L91.1296 121.725C109.795 126.71 130.561 121.886 145.223 107.223L136.738 98.7381ZM148.132 56.2257C152.056 70.9223 148.249 87.2274 136.738 98.7381L145.223 107.223C159.886 92.5612 164.71 71.7947 159.725 53.1296L148.132 56.2257ZM109.868 71.8681C121.379 60.3573 137.684 56.5498 152.38 60.4745L155.477 48.8808C136.811 43.8963 116.045 48.7206 101.383 63.3828L109.868 71.8681ZM98.4745 114.38C94.5498 99.6839 98.3573 83.3788 109.868 71.8681L101.383 63.3828C86.7206 78.045 81.8963 98.8115 86.8808 117.477L98.4745 114.38Z" fill="#6A6A6A" mask="url(#path-7-inside-4_1_33)"/>
<mask id="path-9-inside-5_1_33" fill="white">
<path fill-rule="evenodd" clip-rule="evenodd" d="M111 105.622C125.945 96.9766 136 80.818 136 62.3109C136 43.8038 125.945 27.6453 111 19C96.055 27.6453 86.0001 43.8038 86.0001 62.3109C86.0001 80.818 96.055 96.9766 111 105.622Z"/>
</mask>
<path fill-rule="evenodd" clip-rule="evenodd" d="M111 105.622C125.945 96.9766 136 80.818 136 62.3109C136 43.8038 125.945 27.6453 111 19C96.055 27.6453 86.0001 43.8038 86.0001 62.3109C86.0001 80.818 96.055 96.9766 111 105.622Z" fill="#FAFAFA"/>
<path d="M111 105.622L107.495 111.681L111 113.709L114.505 111.681L111 105.622ZM111 19L114.505 12.9408L111 10.9132L107.495 12.9408L111 19ZM129 62.3109C129 78.2182 120.366 92.1171 107.495 99.5626L114.505 111.681C131.524 101.836 143 83.4178 143 62.3109H129ZM107.495 25.0593C120.366 32.5047 129 46.4036 129 62.3109H143C143 41.204 131.524 22.7858 114.505 12.9408L107.495 25.0593ZM93.0001 62.3109C93.0001 46.4036 101.634 32.5047 114.505 25.0593L107.495 12.9408C90.4759 22.7858 79.0001 41.204 79.0001 62.3109H93.0001ZM114.505 99.5626C101.634 92.1171 93.0001 78.2182 93.0001 62.3109H79.0001C79.0001 83.4178 90.4759 101.836 107.495 111.681L114.505 99.5626Z" fill="#6A6A6A" mask="url(#path-9-inside-5_1_33)"/>
<mask id="path-11-inside-6_1_33" fill="white">
<path fill-rule="evenodd" clip-rule="evenodd" d="M99 92.3109C107.645 107.256 123.804 117.311 142.311 117.311C160.818 117.311 176.977 107.256 185.622 92.3109C176.977 77.3658 160.818 67.3109 142.311 67.3109C123.804 67.3109 107.645 77.3658 99 92.3109Z"/>
</mask>
<path fill-rule="evenodd" clip-rule="evenodd" d="M99 92.3109C107.645 107.256 123.804 117.311 142.311 117.311C160.818 117.311 176.977 107.256 185.622 92.3109C176.977 77.3658 160.818 67.3109 142.311 67.3109C123.804 67.3109 107.645 77.3658 99 92.3109Z" fill="#FAFAFA"/>
<path d="M99 92.3109L92.9408 88.8058L90.9132 92.3109L92.9408 95.8159L99 92.3109ZM185.622 92.3109L191.681 95.8159L193.709 92.3109L191.681 88.8058L185.622 92.3109ZM142.311 110.311C126.404 110.311 112.505 101.677 105.059 88.8058L92.9408 95.8159C102.786 112.835 121.204 124.311 142.311 124.311L142.311 110.311ZM179.563 88.8058C172.117 101.677 158.218 110.311 142.311 110.311L142.311 124.311C163.418 124.311 181.836 112.835 191.681 95.8159L179.563 88.8058ZM142.311 74.3109C158.218 74.3109 172.117 82.945 179.563 95.8159L191.681 88.8058C181.836 71.7867 163.418 60.3109 142.311 60.3109L142.311 74.3109ZM105.059 95.8159C112.505 82.945 126.404 74.3109 142.311 74.3109L142.311 60.3109C121.204 60.3109 102.786 71.7867 92.9408 88.8058L105.059 95.8159Z" fill="#6A6A6A" mask="url(#path-11-inside-6_1_33)"/>
<mask id="path-13-inside-7_1_33" fill="white">
<path fill-rule="evenodd" clip-rule="evenodd" d="M34 93.3109C42.6452 108.256 58.8038 118.311 77.3109 118.311C95.8179 118.311 111.977 108.256 120.622 93.3109C111.977 78.3658 95.8179 68.3109 77.3109 68.3109C58.8038 68.3109 42.6452 78.3658 34 93.3109Z"/>
</mask>
<path fill-rule="evenodd" clip-rule="evenodd" d="M34 93.3109C42.6452 108.256 58.8038 118.311 77.3109 118.311C95.8179 118.311 111.977 108.256 120.622 93.3109C111.977 78.3658 95.8179 68.3109 77.3109 68.3109C58.8038 68.3109 42.6452 78.3658 34 93.3109Z" fill="#FAFAFA"/>
<path d="M34 93.3109L27.9408 89.8058L25.9132 93.3109L27.9408 96.8159L34 93.3109ZM120.622 93.3109L126.681 96.8159L128.709 93.3109L126.681 89.8058L120.622 93.3109ZM77.3109 111.311C61.4036 111.311 47.5047 102.677 40.0592 89.8058L27.9408 96.8159C37.7858 113.835 56.204 125.311 77.3109 125.311L77.3109 111.311ZM114.563 89.8058C107.117 102.677 93.2181 111.311 77.3109 111.311L77.3109 125.311C98.4177 125.311 116.836 113.835 126.681 96.8159L114.563 89.8058ZM77.3109 75.3109C93.2181 75.3109 107.117 83.945 114.563 96.8159L126.681 89.8058C116.836 72.7867 98.4177 61.3109 77.3109 61.3109L77.3109 75.3109ZM40.0592 96.8159C47.5047 83.945 61.4036 75.3109 77.3109 75.3109L77.3109 61.3109C56.204 61.3109 37.7858 72.7867 27.9408 89.8058L40.0592 96.8159Z" fill="#6A6A6A" mask="url(#path-13-inside-7_1_33)"/>
<mask id="path-15-inside-8_1_33" fill="white">
<path fill-rule="evenodd" clip-rule="evenodd" d="M110 166.622C124.945 157.977 135 141.818 135 123.311C135 104.804 124.945 88.6453 110 80C95.055 88.6453 85 104.804 85 123.311C85 141.818 95.055 157.977 110 166.622Z"/>
</mask>
<path fill-rule="evenodd" clip-rule="evenodd" d="M110 166.622C124.945 157.977 135 141.818 135 123.311C135 104.804 124.945 88.6453 110 80C95.055 88.6453 85 104.804 85 123.311C85 141.818 95.055 157.977 110 166.622Z" fill="#FAFAFA"/>
<path d="M110 166.622L106.495 172.681L110 174.709L113.505 172.681L110 166.622ZM110 80L113.505 73.9408L110 71.9132L106.495 73.9408L110 80ZM128 123.311C128 139.218 119.366 153.117 106.495 160.563L113.505 172.681C130.524 162.836 142 144.418 142 123.311H128ZM106.495 86.0593C119.366 93.5047 128 107.404 128 123.311H142C142 102.204 130.524 83.7858 113.505 73.9408L106.495 86.0593ZM92 123.311C92 107.404 100.634 93.5047 113.505 86.0593L106.495 73.9408C89.4758 83.7858 78 102.204 78 123.311H92ZM113.505 160.563C100.634 153.117 92 139.218 92 123.311H78C78 144.418 89.4758 162.836 106.495 172.681L113.505 160.563Z" fill="#6A6A6A" mask="url(#path-15-inside-8_1_33)"/>
<path d="M228.312 116.945C227.974 116.945 227.766 116.672 227.688 116.125C227.401 113.677 227.18 111.776 227.023 110.422C226.867 109.068 226.75 108.052 226.672 107.375C226.62 106.698 226.581 106.268 226.555 106.086C226.555 105.878 226.555 105.734 226.555 105.656C226.555 105.37 226.685 105.057 226.945 104.719C227.206 104.38 227.518 104.211 227.883 104.211C228.143 104.211 228.417 104.367 228.703 104.68C229.016 104.992 229.302 105.357 229.562 105.773C229.849 106.19 230.083 106.607 230.266 107.023C230.474 107.44 230.604 107.74 230.656 107.922C231.333 109.354 232.062 110.565 232.844 111.555C233.651 112.518 234.562 113.299 235.578 113.898C236.594 114.471 237.74 114.888 239.016 115.148C240.292 115.409 241.75 115.539 243.391 115.539C246.177 115.539 248.339 114.875 249.875 113.547C251.438 112.219 252.219 110.083 252.219 107.141C252.219 105.448 251.841 103.911 251.086 102.531C250.357 101.151 249.393 99.875 248.195 98.7031C246.997 97.5052 245.63 96.3724 244.094 95.3047C242.557 94.237 240.982 93.1562 239.367 92.0625C237.753 90.9688 236.177 89.8359 234.641 88.6641C233.104 87.4661 231.737 86.151 230.539 84.7188C229.341 83.2865 228.365 81.6979 227.609 79.9531C226.88 78.2083 226.516 76.2422 226.516 74.0547C226.516 72.7266 226.75 71.4896 227.219 70.3438C227.714 69.1979 228.365 68.1562 229.172 67.2188C229.979 66.2812 230.917 65.4479 231.984 64.7188C233.078 63.9635 234.237 63.3385 235.461 62.8438C236.685 62.3229 237.922 61.9323 239.172 61.6719C240.448 61.4115 241.685 61.2812 242.883 61.2812C243.846 61.2812 244.81 61.3724 245.773 61.5547C246.763 61.7109 247.727 61.9062 248.664 62.1406C249.628 62.375 250.591 62.6354 251.555 62.9219C252.518 63.1823 253.469 63.4297 254.406 63.6641L256.984 63.4297C257.219 63.4297 257.362 63.5339 257.414 63.7422C257.492 63.9245 257.544 64.0938 257.57 64.25L258.703 73.4297C258.703 73.5599 258.534 73.651 258.195 73.7031C257.857 73.7552 257.596 73.7812 257.414 73.7812C257.258 73.7812 257.023 73.7682 256.711 73.7422C256.398 73.6901 256.216 73.638 256.164 73.5859C256.086 73.5078 255.982 73.3516 255.852 73.1172C255.747 72.8568 255.63 72.5833 255.5 72.2969C255.37 71.9844 255.227 71.6719 255.07 71.3594C254.94 71.0469 254.797 70.7734 254.641 70.5391C253.391 68.612 251.789 67.1797 249.836 66.2422C247.883 65.2786 245.734 64.7969 243.391 64.7969C242.375 64.7969 241.424 64.9141 240.539 65.1484C239.654 65.3828 238.885 65.7604 238.234 66.2812C237.583 66.776 237.062 67.4141 236.672 68.1953C236.307 68.9766 236.125 69.9141 236.125 71.0078C236.125 72.5964 236.49 74.0417 237.219 75.3438C237.974 76.6198 238.951 77.8307 240.148 78.9766C241.372 80.0964 242.753 81.1901 244.289 82.2578C245.852 83.3255 247.427 84.4193 249.016 85.5391C250.63 86.6328 252.206 87.8047 253.742 89.0547C255.305 90.3047 256.685 91.6849 257.883 93.1953C259.107 94.7057 260.083 96.3854 260.812 98.2344C261.568 100.083 261.945 102.167 261.945 104.484C261.945 106.021 261.672 107.453 261.125 108.781C260.604 110.109 259.888 111.32 258.977 112.414C258.065 113.482 256.997 114.432 255.773 115.266C254.549 116.099 253.234 116.802 251.828 117.375C250.448 117.922 249.016 118.339 247.531 118.625C246.073 118.911 244.641 119.055 243.234 119.055C241.464 119.055 239.914 118.924 238.586 118.664C237.284 118.404 236.151 118.117 235.188 117.805C234.25 117.466 233.456 117.167 232.805 116.906C232.154 116.646 231.607 116.516 231.164 116.516C231.008 116.516 230.891 116.529 230.812 116.555L228.312 116.945ZM268.234 118C268.078 117.948 267.974 117.779 267.922 117.492C267.87 117.18 267.844 116.945 267.844 116.789C267.844 116.659 267.883 116.451 267.961 116.164C268.039 115.878 268.13 115.708 268.234 115.656C268.573 115.5 269.055 115.383 269.68 115.305C270.305 115.201 270.93 115.018 271.555 114.758C272.18 114.471 272.727 114.042 273.195 113.469C273.664 112.87 273.898 111.997 273.898 110.852V92.1016C273.898 91.4766 273.729 90.9948 273.391 90.6562C273.052 90.2917 272.622 90.0182 272.102 89.8359C271.581 89.6536 271.021 89.5104 270.422 89.4062C269.823 89.276 269.25 89.1328 268.703 88.9766C268.547 88.9245 268.417 88.8594 268.312 88.7812C268.234 88.6771 268.195 88.4818 268.195 88.1953C268.195 88.0651 268.234 87.9349 268.312 87.8047C268.391 87.6745 268.547 87.5443 268.781 87.4141L281.711 81.3203C281.815 81.2682 281.919 81.2161 282.023 81.1641C282.154 81.112 282.245 81.0859 282.297 81.0859C282.74 81.0859 282.961 81.3984 282.961 82.0234V110.852C282.961 111.997 283.195 112.87 283.664 113.469C284.133 114.042 284.68 114.471 285.305 114.758C285.93 115.018 286.555 115.201 287.18 115.305C287.805 115.383 288.286 115.5 288.625 115.656C288.729 115.708 288.82 115.878 288.898 116.164C288.977 116.451 289.016 116.659 289.016 116.789C289.016 116.945 288.99 117.18 288.938 117.492C288.885 117.779 288.781 117.948 288.625 118H268.234ZM272.219 66.9453C272.219 65.2786 272.714 63.9505 273.703 62.9609C274.693 61.9714 276.021 61.4766 277.688 61.4766C279.354 61.4766 280.682 61.9714 281.672 62.9609C282.661 63.9505 283.156 65.2786 283.156 66.9453C283.156 68.612 282.661 69.9401 281.672 70.9297C280.682 71.8932 279.354 72.375 277.688 72.375C276.021 72.375 274.693 71.8932 273.703 70.9297C272.714 69.9401 272.219 68.612 272.219 66.9453ZM306.477 80.1094C306.581 80.0573 306.685 80.0052 306.789 79.9531C306.919 79.901 307.01 79.875 307.062 79.875C307.505 79.875 307.727 80.1875 307.727 80.8125V87.2969C307.753 87.4531 307.857 87.5312 308.039 87.5312C308.195 87.5312 308.378 87.4792 308.586 87.375C309.758 86.75 310.904 86.112 312.023 85.4609C313.143 84.7839 314.263 84.1719 315.383 83.625C316.529 83.0781 317.674 82.6354 318.82 82.2969C319.966 81.9583 321.125 81.7891 322.297 81.7891C323.469 81.7891 324.458 81.9323 325.266 82.2188C326.073 82.5052 326.75 82.8828 327.297 83.3516C327.844 83.7943 328.286 84.2891 328.625 84.8359C328.99 85.3568 329.302 85.8646 329.562 86.3594C329.589 86.4375 329.641 86.5417 329.719 86.6719C329.797 86.776 329.888 86.8932 329.992 87.0234C330.122 87.1536 330.24 87.2708 330.344 87.375C330.474 87.4531 330.604 87.4922 330.734 87.4922C331.099 87.4661 331.477 87.349 331.867 87.1406C334.393 85.8646 336.451 84.875 338.039 84.1719C339.654 83.4427 340.995 82.9089 342.062 82.5703C343.156 82.2057 344.068 81.9844 344.797 81.9062C345.552 81.8281 346.32 81.7891 347.102 81.7891C348.638 81.7891 349.953 82.0625 351.047 82.6094C352.167 83.1562 353.104 83.8854 353.859 84.7969C354.615 85.6823 355.214 86.7109 355.656 87.8828C356.125 89.0286 356.477 90.2135 356.711 91.4375C356.945 92.6354 357.102 93.8333 357.18 95.0312C357.258 96.2031 357.297 97.2708 357.297 98.2344C357.297 99.1458 357.271 99.9922 357.219 100.773C357.193 101.555 357.154 102.414 357.102 103.352C357.076 104.263 357.036 105.305 356.984 106.477C356.958 107.648 356.945 109.068 356.945 110.734C356.945 111.516 357.089 112.167 357.375 112.688C357.661 113.208 358.026 113.638 358.469 113.977C358.938 114.315 359.445 114.576 359.992 114.758C360.539 114.914 361.073 115.044 361.594 115.148C362.115 115.253 362.583 115.344 363 115.422C363.443 115.474 363.781 115.552 364.016 115.656C364.12 115.708 364.211 115.878 364.289 116.164C364.367 116.451 364.406 116.659 364.406 116.789C364.406 116.945 364.38 117.18 364.328 117.492C364.276 117.779 364.172 117.948 364.016 118H342.219C342.062 117.948 341.958 117.779 341.906 117.492C341.854 117.18 341.828 116.945 341.828 116.789C341.828 116.659 341.867 116.451 341.945 116.164C342.023 115.878 342.115 115.708 342.219 115.656C342.557 115.5 343.039 115.383 343.664 115.305C344.289 115.201 344.914 115.005 345.539 114.719C346.164 114.406 346.698 113.938 347.141 113.312C347.609 112.688 347.844 111.75 347.844 110.5V110.422C347.974 109.615 348.052 108.729 348.078 107.766C348.13 106.776 348.156 105.695 348.156 104.523C348.156 103.951 348.143 103.417 348.117 102.922C348.117 102.401 348.117 101.88 348.117 101.359C348.117 100.812 348.104 100.227 348.078 99.6016C348.078 98.9766 348.078 98.2604 348.078 97.4531C348.078 96.1771 348.013 94.901 347.883 93.625C347.779 92.349 347.492 91.2031 347.023 90.1875C346.581 89.1719 345.917 88.3516 345.031 87.7266C344.146 87.0755 342.922 86.75 341.359 86.75C341.099 86.75 340.812 86.7891 340.5 86.8672C340.188 86.9193 339.758 87.0495 339.211 87.2578C338.664 87.4401 337.935 87.7266 337.023 88.1172C336.112 88.5078 334.914 89.0156 333.43 89.6406C333.221 89.7708 333 89.9271 332.766 90.1094C332.557 90.2656 332.44 90.474 332.414 90.7344V110.734C332.414 111.906 332.648 112.805 333.117 113.43C333.586 114.029 334.133 114.471 334.758 114.758C335.383 115.018 336.008 115.201 336.633 115.305C337.258 115.383 337.74 115.5 338.078 115.656C338.182 115.708 338.273 115.878 338.352 116.164C338.43 116.451 338.469 116.659 338.469 116.789C338.469 116.945 338.443 117.18 338.391 117.492C338.339 117.779 338.234 117.948 338.078 118H317.688C317.531 117.948 317.427 117.779 317.375 117.492C317.323 117.18 317.297 116.945 317.297 116.789C317.297 116.659 317.336 116.451 317.414 116.164C317.492 115.878 317.583 115.708 317.688 115.656C318.026 115.5 318.508 115.383 319.133 115.305C319.758 115.201 320.383 115.018 321.008 114.758C321.633 114.471 322.18 114.029 322.648 113.43C323.117 112.805 323.352 111.906 323.352 110.734V93.7031C323.352 92.6875 323.273 91.763 323.117 90.9297C322.961 90.0703 322.661 89.3411 322.219 88.7422C321.776 88.1172 321.151 87.6354 320.344 87.2969C319.562 86.9583 318.534 86.7891 317.258 86.7891C316.659 86.7891 315.904 86.9583 314.992 87.2969C314.081 87.6094 313.143 88.013 312.18 88.5078C311.242 89.0026 310.357 89.5234 309.523 90.0703C308.716 90.6172 308.117 91.125 307.727 91.5938V110.734C307.727 111.906 307.961 112.805 308.43 113.43C308.898 114.029 309.445 114.471 310.07 114.758C310.695 115.018 311.32 115.201 311.945 115.305C312.57 115.383 313.052 115.5 313.391 115.656C313.495 115.708 313.586 115.878 313.664 116.164C313.742 116.451 313.781 116.659 313.781 116.789C313.781 116.945 313.755 117.18 313.703 117.492C313.651 117.779 313.547 117.948 313.391 118H293C292.844 117.948 292.74 117.779 292.688 117.492C292.635 117.18 292.609 116.945 292.609 116.789C292.609 116.659 292.648 116.451 292.727 116.164C292.805 115.878 292.896 115.708 293 115.656C293.339 115.5 293.82 115.383 294.445 115.305C295.07 115.201 295.695 115.018 296.32 114.758C296.945 114.471 297.492 114.042 297.961 113.469C298.43 112.87 298.664 111.984 298.664 110.812V90.9297C298.664 90.3047 298.495 89.8229 298.156 89.4844C297.818 89.1198 297.388 88.8464 296.867 88.6641C296.346 88.4818 295.786 88.3385 295.188 88.2344C294.589 88.1042 294.016 87.9609 293.469 87.8047C293.312 87.7526 293.182 87.6875 293.078 87.6094C293 87.5052 292.961 87.3099 292.961 87.0234C292.961 86.8932 293 86.763 293.078 86.6328C293.156 86.5026 293.312 86.3724 293.547 86.2422L306.477 80.1094ZM378.547 53.9766C378.651 53.9245 378.755 53.8724 378.859 53.8203C378.99 53.7682 379.081 53.7422 379.133 53.7422C379.576 53.7422 379.797 54.0547 379.797 54.6797V84.1719C379.797 84.4323 379.823 84.7057 379.875 84.9922C379.953 85.2526 380.122 85.3828 380.383 85.3828C380.487 85.3828 380.695 85.3047 381.008 85.1484C381.971 84.7057 382.87 84.263 383.703 83.8203C384.562 83.3776 385.396 82.987 386.203 82.6484C387.036 82.2839 387.87 81.9974 388.703 81.7891C389.536 81.5547 390.409 81.4375 391.32 81.4375C393.378 81.4375 395.305 81.9062 397.102 82.8438C398.898 83.7812 400.461 85.0573 401.789 86.6719C403.143 88.2865 404.211 90.2005 404.992 92.4141C405.773 94.6016 406.164 96.9453 406.164 99.4453C406.164 102.336 405.656 104.992 404.641 107.414C403.625 109.81 402.206 111.88 400.383 113.625C398.586 115.344 396.438 116.685 393.938 117.648C391.464 118.586 388.768 119.055 385.852 119.055C384.289 119.055 382.844 118.99 381.516 118.859C380.214 118.755 378.977 118.599 377.805 118.391C376.633 118.208 375.513 117.987 374.445 117.727C373.378 117.466 372.323 117.206 371.281 116.945C371.047 116.893 370.891 116.789 370.812 116.633C370.76 116.451 370.734 116.242 370.734 116.008V64.7578C370.734 64.1328 370.565 63.651 370.227 63.3125C369.888 62.9479 369.458 62.6745 368.938 62.4922C368.417 62.3099 367.857 62.1667 367.258 62.0625C366.659 61.9323 366.086 61.7891 365.539 61.6328C365.383 61.5807 365.253 61.5156 365.148 61.4375C365.07 61.3333 365.031 61.138 365.031 60.8516C365.031 60.7214 365.07 60.5911 365.148 60.4609C365.227 60.3307 365.383 60.2005 365.617 60.0703L378.547 53.9766ZM380.266 88.6641C380.057 88.7943 379.927 88.9375 379.875 89.0938C379.823 89.224 379.797 89.3932 379.797 89.6016V108.469C380.057 110.943 380.865 112.818 382.219 114.094C383.573 115.37 385.409 116.008 387.727 116.008C389.602 116.008 391.164 115.643 392.414 114.914C393.664 114.185 394.667 113.169 395.422 111.867C396.203 110.565 396.75 109.042 397.062 107.297C397.401 105.526 397.57 103.599 397.57 101.516C397.57 99.4844 397.414 97.5964 397.102 95.8516C396.789 94.0807 396.229 92.5443 395.422 91.2422C394.615 89.9141 393.521 88.8724 392.141 88.1172C390.76 87.3359 389.003 86.9453 386.867 86.9453C386.164 86.9453 385.526 86.9714 384.953 87.0234C384.406 87.0755 383.885 87.1667 383.391 87.2969C382.896 87.401 382.401 87.5703 381.906 87.8047C381.411 88.0391 380.865 88.3255 380.266 88.6641ZM410.891 102.18C410.891 99.1328 411.32 96.3333 412.18 93.7812C413.039 91.2031 414.276 88.9766 415.891 87.1016C417.505 85.2266 419.471 83.7682 421.789 82.7266C424.133 81.6849 426.789 81.1641 429.758 81.1641C430.643 81.1641 431.438 81.2292 432.141 81.3594C432.844 81.4635 433.482 81.6198 434.055 81.8281C434.654 82.0104 435.201 82.2448 435.695 82.5312C436.216 82.7917 436.737 83.0781 437.258 83.3906C437.857 83.7031 438.534 84.263 439.289 85.0703C440.07 85.8776 440.799 86.8151 441.477 87.8828C442.154 88.9505 442.727 90.0964 443.195 91.3203C443.664 92.5182 443.898 93.6771 443.898 94.7969C443.898 95.1615 443.82 95.5651 443.664 96.0078C443.534 96.4245 443.299 96.6328 442.961 96.6328H419.914C419.654 96.6328 419.471 96.8672 419.367 97.3359C419.289 97.8047 419.25 98.3776 419.25 99.0547C419.25 101.346 419.576 103.391 420.227 105.188C420.904 106.958 421.802 108.469 422.922 109.719C424.042 110.943 425.331 111.88 426.789 112.531C428.247 113.156 429.784 113.469 431.398 113.469C432.414 113.469 433.391 113.339 434.328 113.078C435.266 112.792 436.164 112.427 437.023 111.984C437.883 111.542 438.69 111.047 439.445 110.5C440.201 109.953 440.917 109.406 441.594 108.859C441.75 108.807 441.854 108.781 441.906 108.781C441.984 108.781 442.089 108.846 442.219 108.977C442.453 109.185 442.688 109.432 442.922 109.719C443.156 109.979 443.339 110.201 443.469 110.383C443.547 110.461 443.586 110.539 443.586 110.617C443.586 110.695 443.534 110.786 443.43 110.891C442.57 111.906 441.516 112.909 440.266 113.898C439.016 114.862 437.674 115.734 436.242 116.516C434.836 117.271 433.391 117.883 431.906 118.352C430.422 118.82 429.016 119.055 427.688 119.055C425.005 119.055 422.622 118.573 420.539 117.609C418.456 116.62 416.698 115.331 415.266 113.742C413.833 112.154 412.74 110.357 411.984 108.352C411.255 106.32 410.891 104.263 410.891 102.18ZM433.82 93.625C434.497 93.625 434.836 93.3255 434.836 92.7266C434.836 91.7109 434.667 90.7604 434.328 89.875C434.016 88.9635 433.56 88.1693 432.961 87.4922C432.362 86.7891 431.633 86.2422 430.773 85.8516C429.94 85.4609 429.003 85.2656 427.961 85.2656C426.711 85.2656 425.617 85.5391 424.68 86.0859C423.742 86.6068 422.948 87.2448 422.297 88C421.646 88.7552 421.151 89.5365 420.812 90.3438C420.5 91.151 420.344 91.8411 420.344 92.4141C420.344 92.8568 420.409 93.1693 420.539 93.3516C420.669 93.5339 420.839 93.625 421.047 93.625H433.82ZM469.719 116.828C469.719 116.984 469.693 117.206 469.641 117.492C469.589 117.779 469.484 117.948 469.328 118H448.938C448.781 117.948 448.677 117.779 448.625 117.492C448.573 117.206 448.547 116.984 448.547 116.828C448.547 116.698 448.586 116.49 448.664 116.203C448.742 115.917 448.833 115.747 448.938 115.695C449.276 115.539 449.758 115.422 450.383 115.344C451.008 115.24 451.633 115.057 452.258 114.797C452.883 114.51 453.43 114.081 453.898 113.508C454.367 112.909 454.602 112.036 454.602 110.891V65.3438C454.602 64.7188 454.432 64.237 454.094 63.8984C453.755 63.5339 453.326 63.2604 452.805 63.0781C452.284 62.8958 451.724 62.7526 451.125 62.6484C450.526 62.5182 449.953 62.375 449.406 62.2188C449.068 62.0885 448.898 61.724 448.898 61.125C448.898 60.9948 448.938 60.8255 449.016 60.6172C449.094 60.3828 449.25 60.2005 449.484 60.0703L462.414 53.9766C462.518 53.9245 462.635 53.8724 462.766 53.8203C462.896 53.7682 463.039 53.7422 463.195 53.7422C463.404 53.7422 463.534 53.8203 463.586 53.9766C463.638 54.1068 463.664 54.3411 463.664 54.6797V110.891C463.664 112.036 463.898 112.909 464.367 113.508C464.836 114.081 465.383 114.51 466.008 114.797C466.633 115.057 467.258 115.24 467.883 115.344C468.508 115.422 468.99 115.539 469.328 115.695C469.432 115.747 469.523 115.917 469.602 116.203C469.68 116.49 469.719 116.698 469.719 116.828ZM486.633 80.1094C486.737 80.0573 486.841 80.0052 486.945 79.9531C487.076 79.901 487.167 79.875 487.219 79.875C487.661 79.875 487.883 80.1875 487.883 80.8125V87.2969C487.909 87.4531 488.013 87.5312 488.195 87.5312C488.352 87.5312 488.534 87.4792 488.742 87.375C489.914 86.75 491.06 86.112 492.18 85.4609C493.299 84.7839 494.419 84.1719 495.539 83.625C496.685 83.0781 497.831 82.6354 498.977 82.2969C500.122 81.9583 501.281 81.7891 502.453 81.7891C503.625 81.7891 504.615 81.9323 505.422 82.2188C506.229 82.5052 506.906 82.8828 507.453 83.3516C508 83.7943 508.443 84.2891 508.781 84.8359C509.146 85.3568 509.458 85.8646 509.719 86.3594C509.745 86.4375 509.797 86.5417 509.875 86.6719C509.953 86.776 510.044 86.8932 510.148 87.0234C510.279 87.1536 510.396 87.2708 510.5 87.375C510.63 87.4531 510.76 87.4922 510.891 87.4922C511.255 87.4661 511.633 87.349 512.023 87.1406C514.549 85.8646 516.607 84.875 518.195 84.1719C519.81 83.4427 521.151 82.9089 522.219 82.5703C523.312 82.2057 524.224 81.9844 524.953 81.9062C525.708 81.8281 526.477 81.7891 527.258 81.7891C528.794 81.7891 530.109 82.0625 531.203 82.6094C532.323 83.1562 533.26 83.8854 534.016 84.7969C534.771 85.6823 535.37 86.7109 535.812 87.8828C536.281 89.0286 536.633 90.2135 536.867 91.4375C537.102 92.6354 537.258 93.8333 537.336 95.0312C537.414 96.2031 537.453 97.2708 537.453 98.2344C537.453 99.1458 537.427 99.9922 537.375 100.773C537.349 101.555 537.31 102.414 537.258 103.352C537.232 104.263 537.193 105.305 537.141 106.477C537.115 107.648 537.102 109.068 537.102 110.734C537.102 111.516 537.245 112.167 537.531 112.688C537.818 113.208 538.182 113.638 538.625 113.977C539.094 114.315 539.602 114.576 540.148 114.758C540.695 114.914 541.229 115.044 541.75 115.148C542.271 115.253 542.74 115.344 543.156 115.422C543.599 115.474 543.938 115.552 544.172 115.656C544.276 115.708 544.367 115.878 544.445 116.164C544.523 116.451 544.562 116.659 544.562 116.789C544.562 116.945 544.536 117.18 544.484 117.492C544.432 117.779 544.328 117.948 544.172 118H522.375C522.219 117.948 522.115 117.779 522.062 117.492C522.01 117.18 521.984 116.945 521.984 116.789C521.984 116.659 522.023 116.451 522.102 116.164C522.18 115.878 522.271 115.708 522.375 115.656C522.714 115.5 523.195 115.383 523.82 115.305C524.445 115.201 525.07 115.005 525.695 114.719C526.32 114.406 526.854 113.938 527.297 113.312C527.766 112.688 528 111.75 528 110.5V110.422C528.13 109.615 528.208 108.729 528.234 107.766C528.286 106.776 528.312 105.695 528.312 104.523C528.312 103.951 528.299 103.417 528.273 102.922C528.273 102.401 528.273 101.88 528.273 101.359C528.273 100.812 528.26 100.227 528.234 99.6016C528.234 98.9766 528.234 98.2604 528.234 97.4531C528.234 96.1771 528.169 94.901 528.039 93.625C527.935 92.349 527.648 91.2031 527.18 90.1875C526.737 89.1719 526.073 88.3516 525.188 87.7266C524.302 87.0755 523.078 86.75 521.516 86.75C521.255 86.75 520.969 86.7891 520.656 86.8672C520.344 86.9193 519.914 87.0495 519.367 87.2578C518.82 87.4401 518.091 87.7266 517.18 88.1172C516.268 88.5078 515.07 89.0156 513.586 89.6406C513.378 89.7708 513.156 89.9271 512.922 90.1094C512.714 90.2656 512.596 90.474 512.57 90.7344V110.734C512.57 111.906 512.805 112.805 513.273 113.43C513.742 114.029 514.289 114.471 514.914 114.758C515.539 115.018 516.164 115.201 516.789 115.305C517.414 115.383 517.896 115.5 518.234 115.656C518.339 115.708 518.43 115.878 518.508 116.164C518.586 116.451 518.625 116.659 518.625 116.789C518.625 116.945 518.599 117.18 518.547 117.492C518.495 117.779 518.391 117.948 518.234 118H497.844C497.688 117.948 497.583 117.779 497.531 117.492C497.479 117.18 497.453 116.945 497.453 116.789C497.453 116.659 497.492 116.451 497.57 116.164C497.648 115.878 497.74 115.708 497.844 115.656C498.182 115.5 498.664 115.383 499.289 115.305C499.914 115.201 500.539 115.018 501.164 114.758C501.789 114.471 502.336 114.029 502.805 113.43C503.273 112.805 503.508 111.906 503.508 110.734V93.7031C503.508 92.6875 503.43 91.763 503.273 90.9297C503.117 90.0703 502.818 89.3411 502.375 88.7422C501.932 88.1172 501.307 87.6354 500.5 87.2969C499.719 86.9583 498.69 86.7891 497.414 86.7891C496.815 86.7891 496.06 86.9583 495.148 87.2969C494.237 87.6094 493.299 88.013 492.336 88.5078C491.398 89.0026 490.513 89.5234 489.68 90.0703C488.872 90.6172 488.273 91.125 487.883 91.5938V110.734C487.883 111.906 488.117 112.805 488.586 113.43C489.055 114.029 489.602 114.471 490.227 114.758C490.852 115.018 491.477 115.201 492.102 115.305C492.727 115.383 493.208 115.5 493.547 115.656C493.651 115.708 493.742 115.878 493.82 116.164C493.898 116.451 493.938 116.659 493.938 116.789C493.938 116.945 493.911 117.18 493.859 117.492C493.807 117.779 493.703 117.948 493.547 118H473.156C473 117.948 472.896 117.779 472.844 117.492C472.792 117.18 472.766 116.945 472.766 116.789C472.766 116.659 472.805 116.451 472.883 116.164C472.961 115.878 473.052 115.708 473.156 115.656C473.495 115.5 473.977 115.383 474.602 115.305C475.227 115.201 475.852 115.018 476.477 114.758C477.102 114.471 477.648 114.042 478.117 113.469C478.586 112.87 478.82 111.984 478.82 110.812V90.9297C478.82 90.3047 478.651 89.8229 478.312 89.4844C477.974 89.1198 477.544 88.8464 477.023 88.6641C476.503 88.4818 475.943 88.3385 475.344 88.2344C474.745 88.1042 474.172 87.9609 473.625 87.8047C473.469 87.7526 473.339 87.6875 473.234 87.6094C473.156 87.5052 473.117 87.3099 473.117 87.0234C473.117 86.8932 473.156 86.763 473.234 86.6328C473.312 86.5026 473.469 86.3724 473.703 86.2422L486.633 80.1094ZM557.648 142.219C557.18 142.219 556.724 142.141 556.281 141.984C555.839 141.828 555.435 141.607 555.07 141.32C554.706 141.034 554.406 140.695 554.172 140.305C553.964 139.94 553.859 139.523 553.859 139.055C553.859 138.326 554.042 137.766 554.406 137.375C554.797 136.984 555.266 136.659 555.812 136.398C556.359 136.138 556.932 135.917 557.531 135.734C558.13 135.552 558.638 135.305 559.055 134.992C559.341 134.784 559.641 134.536 559.953 134.25C560.292 133.99 560.591 133.56 560.852 132.961L565.969 121.047L551.008 89.8359C550.565 88.638 549.927 87.5964 549.094 86.7109C548.26 85.7995 547.245 85.1484 546.047 84.7578C545.865 84.7057 545.643 84.6536 545.383 84.6016C545.122 84.5234 544.875 84.4323 544.641 84.3281C544.38 84.224 544.172 84.0938 544.016 83.9375C543.833 83.7552 543.742 83.5208 543.742 83.2344C543.742 82.974 543.82 82.7135 543.977 82.4531C544.133 82.1927 544.367 82.0625 544.68 82.0625H565.305C565.461 82.0625 565.552 82.2188 565.578 82.5312C565.604 82.8438 565.617 83.0391 565.617 83.1172C565.617 83.4818 565.461 83.7422 565.148 83.8984C564.862 84.0286 564.497 84.1198 564.055 84.1719C563.612 84.224 563.13 84.263 562.609 84.2891C562.115 84.3151 561.646 84.4062 561.203 84.5625C560.76 84.7188 560.383 84.9661 560.07 85.3047C559.784 85.6432 559.641 86.151 559.641 86.8281C559.641 86.9062 559.693 87.0755 559.797 87.3359C559.927 87.5703 559.992 87.7135 559.992 87.7656L569.68 108.508C569.732 108.638 569.823 108.833 569.953 109.094C570.109 109.328 570.279 109.445 570.461 109.445C570.565 109.445 570.669 109.393 570.773 109.289C570.878 109.159 570.969 109.016 571.047 108.859C571.125 108.703 571.19 108.56 571.242 108.43C571.294 108.273 571.333 108.169 571.359 108.117C572.557 105.044 573.56 102.44 574.367 100.305C575.201 98.1693 575.878 96.3984 576.398 94.9922C576.945 93.5859 577.349 92.4922 577.609 91.7109C577.896 90.9036 578.091 90.2917 578.195 89.875C578.326 89.4323 578.404 89.1198 578.43 88.9375C578.456 88.7292 578.469 88.5339 578.469 88.3516C578.521 87.4401 578.247 86.6849 577.648 86.0859C577.049 85.487 576.333 85.0443 575.5 84.7578C575.266 84.6797 574.966 84.6276 574.602 84.6016C574.263 84.5495 573.924 84.4844 573.586 84.4062C573.273 84.3021 572.987 84.1589 572.727 83.9766C572.492 83.7682 572.375 83.4818 572.375 83.1172C572.375 82.9089 572.466 82.6875 572.648 82.4531C572.831 82.1927 573.026 82.0625 573.234 82.0625H588.82C589.029 82.0625 589.146 82.2188 589.172 82.5312C589.224 82.8177 589.25 83.026 589.25 83.1562C589.25 83.3385 589.224 83.4948 589.172 83.625C589.12 83.7552 588.99 83.8724 588.781 83.9766C588.599 84.0807 588.326 84.1849 587.961 84.2891C587.622 84.3932 587.167 84.4974 586.594 84.6016C586.047 84.7057 585.552 84.9792 585.109 85.4219C584.667 85.8385 584.263 86.3333 583.898 86.9062C583.56 87.4531 583.247 88.0391 582.961 88.6641C582.701 89.2891 582.466 89.849 582.258 90.3438L562.453 139.406C562.245 139.901 561.945 140.318 561.555 140.656C561.164 141.021 560.734 141.32 560.266 141.555C559.797 141.789 559.328 141.958 558.859 142.062C558.391 142.167 557.987 142.219 557.648 142.219ZM606.164 80.1094C606.268 80.0573 606.372 80.0052 606.477 79.9531C606.607 79.901 606.698 79.875 606.75 79.875C607.193 79.875 607.414 80.1875 607.414 80.8125V86.9062C607.492 87.1667 607.596 87.2969 607.727 87.2969C607.857 87.2969 607.961 87.2969 608.039 87.2969C608.117 87.2708 608.221 87.2188 608.352 87.1406C610.018 86.2812 611.424 85.5651 612.57 84.9922C613.742 84.3932 614.745 83.8984 615.578 83.5078C616.438 83.0911 617.193 82.7786 617.844 82.5703C618.521 82.3359 619.198 82.1667 619.875 82.0625C620.552 81.9323 621.294 81.8542 622.102 81.8281C622.909 81.8021 623.898 81.7891 625.07 81.7891C626.346 81.7891 627.453 82.0625 628.391 82.6094C629.328 83.1562 630.109 83.8854 630.734 84.7969C631.385 85.6823 631.906 86.7109 632.297 87.8828C632.714 89.0286 633.026 90.2135 633.234 91.4375C633.443 92.6354 633.586 93.8333 633.664 95.0312C633.742 96.2031 633.781 97.2708 633.781 98.2344C633.781 99.1458 633.755 99.9922 633.703 100.773C633.677 101.555 633.638 102.414 633.586 103.352C633.56 104.263 633.521 105.305 633.469 106.477C633.443 107.648 633.43 109.068 633.43 110.734C633.43 111.516 633.573 112.167 633.859 112.688C634.146 113.208 634.51 113.638 634.953 113.977C635.422 114.315 635.93 114.576 636.477 114.758C637.023 114.914 637.557 115.044 638.078 115.148C638.599 115.253 639.068 115.344 639.484 115.422C639.927 115.474 640.266 115.552 640.5 115.656C640.604 115.708 640.695 115.878 640.773 116.164C640.852 116.451 640.891 116.659 640.891 116.789C640.891 116.945 640.865 117.18 640.812 117.492C640.76 117.779 640.656 117.948 640.5 118H618.703C618.547 117.948 618.443 117.779 618.391 117.492C618.339 117.18 618.312 116.945 618.312 116.789C618.312 116.659 618.352 116.451 618.43 116.164C618.508 115.878 618.599 115.708 618.703 115.656C619.042 115.5 619.484 115.383 620.031 115.305C620.604 115.201 621.177 114.992 621.75 114.68C622.349 114.367 622.883 113.898 623.352 113.273C623.846 112.622 624.172 111.672 624.328 110.422C624.38 110.031 624.419 109.667 624.445 109.328C624.497 108.99 624.536 108.651 624.562 108.312C624.589 107.948 624.602 107.557 624.602 107.141C624.628 106.724 624.641 106.242 624.641 105.695C624.641 104.523 624.628 103.273 624.602 101.945C624.576 100.617 624.562 99.1328 624.562 97.4922C624.562 96.2161 624.497 94.9531 624.367 93.7031C624.263 92.4531 623.977 91.3333 623.508 90.3438C623.065 89.3542 622.401 88.5469 621.516 87.9219C620.63 87.2969 619.406 86.9844 617.844 86.9844C617.297 86.9844 616.802 87.0234 616.359 87.1016C615.943 87.1536 615.422 87.2969 614.797 87.5312C614.198 87.7656 613.404 88.1172 612.414 88.5859C611.424 89.0547 610.096 89.6927 608.43 90.5C608.221 90.6302 608 90.7865 607.766 90.9688C607.557 91.125 607.44 91.3333 607.414 91.5938V110.734C607.414 111.906 607.648 112.805 608.117 113.43C608.586 114.029 609.133 114.471 609.758 114.758C610.383 115.018 611.008 115.201 611.633 115.305C612.258 115.383 612.74 115.5 613.078 115.656C613.182 115.708 613.273 115.878 613.352 116.164C613.43 116.451 613.469 116.659 613.469 116.789C613.469 116.945 613.443 117.18 613.391 117.492C613.339 117.779 613.234 117.948 613.078 118H592.688C592.531 117.948 592.427 117.779 592.375 117.492C592.323 117.18 592.297 116.945 592.297 116.789C592.297 116.659 592.336 116.451 592.414 116.164C592.492 115.878 592.583 115.708 592.688 115.656C593.026 115.5 593.508 115.383 594.133 115.305C594.758 115.201 595.383 115.018 596.008 114.758C596.633 114.471 597.18 114.029 597.648 113.43C598.117 112.805 598.352 111.906 598.352 110.734V90.8906C598.352 90.2656 598.182 89.7839 597.844 89.4453C597.505 89.0807 597.076 88.8073 596.555 88.625C596.034 88.4427 595.474 88.2995 594.875 88.1953C594.276 88.0651 593.703 87.9219 593.156 87.7656C593 87.7135 592.87 87.6484 592.766 87.5703C592.688 87.4661 592.648 87.2708 592.648 86.9844C592.648 86.8542 592.688 86.724 592.766 86.5938C592.844 86.4635 593 86.3333 593.234 86.2031L606.164 80.1094ZM644.406 102.18C644.406 99.1328 644.836 96.3333 645.695 93.7812C646.555 91.2031 647.792 88.9766 649.406 87.1016C651.021 85.2266 652.987 83.7682 655.305 82.7266C657.648 81.6849 660.305 81.1641 663.273 81.1641C664.159 81.1641 664.953 81.2292 665.656 81.3594C666.359 81.4635 666.997 81.6198 667.57 81.8281C668.169 82.0104 668.716 82.2448 669.211 82.5312C669.732 82.7917 670.253 83.0781 670.773 83.3906C671.372 83.7031 672.049 84.263 672.805 85.0703C673.586 85.8776 674.315 86.8151 674.992 87.8828C675.669 88.9505 676.242 90.0964 676.711 91.3203C677.18 92.5182 677.414 93.6771 677.414 94.7969C677.414 95.1615 677.336 95.5651 677.18 96.0078C677.049 96.4245 676.815 96.6328 676.477 96.6328H653.43C653.169 96.6328 652.987 96.8672 652.883 97.3359C652.805 97.8047 652.766 98.3776 652.766 99.0547C652.766 101.346 653.091 103.391 653.742 105.188C654.419 106.958 655.318 108.469 656.438 109.719C657.557 110.943 658.846 111.88 660.305 112.531C661.763 113.156 663.299 113.469 664.914 113.469C665.93 113.469 666.906 113.339 667.844 113.078C668.781 112.792 669.68 112.427 670.539 111.984C671.398 111.542 672.206 111.047 672.961 110.5C673.716 109.953 674.432 109.406 675.109 108.859C675.266 108.807 675.37 108.781 675.422 108.781C675.5 108.781 675.604 108.846 675.734 108.977C675.969 109.185 676.203 109.432 676.438 109.719C676.672 109.979 676.854 110.201 676.984 110.383C677.062 110.461 677.102 110.539 677.102 110.617C677.102 110.695 677.049 110.786 676.945 110.891C676.086 111.906 675.031 112.909 673.781 113.898C672.531 114.862 671.19 115.734 669.758 116.516C668.352 117.271 666.906 117.883 665.422 118.352C663.938 118.82 662.531 119.055 661.203 119.055C658.521 119.055 656.138 118.573 654.055 117.609C651.971 116.62 650.214 115.331 648.781 113.742C647.349 112.154 646.255 110.357 645.5 108.352C644.771 106.32 644.406 104.263 644.406 102.18ZM667.336 93.625C668.013 93.625 668.352 93.3255 668.352 92.7266C668.352 91.7109 668.182 90.7604 667.844 89.875C667.531 88.9635 667.076 88.1693 666.477 87.4922C665.878 86.7891 665.148 86.2422 664.289 85.8516C663.456 85.4609 662.518 85.2656 661.477 85.2656C660.227 85.2656 659.133 85.5391 658.195 86.0859C657.258 86.6068 656.464 87.2448 655.812 88C655.161 88.7552 654.667 89.5365 654.328 90.3438C654.016 91.151 653.859 91.8411 653.859 92.4141C653.859 92.8568 653.924 93.1693 654.055 93.3516C654.185 93.5339 654.354 93.625 654.562 93.625H667.336Z" fill="#EAEAEA"/>
</svg>
